# xmcd
#
# Track frame offsets:
#	150
#	16796
#	35192
#	51116
#	67372
#	84237
#	101952
#	117296
#	134858
#	149904
#
# Disc length: 2226 seconds
#
# Revision: 0
# Processed by: cddbd v1.5.2PL0 Copyright (c) Steve Scherf et al.
# Submitted via: dBpowerAMP V4.0
#
DISCID=a008b00a
DTITLE=Mike Piromporn - Nuk soo M.3
DYEAR=2001
DGENRE=Country
TTITLE0=Nuk soo
TTITLE1=Ruen hor hong chao
TTITLE2=Pra jun kong rao
TTITLE3=Waew tah tee took muern
TTITLE4=Khob khun sawan
TTITLE5=Fak mae wai kun maew
TTITLE6=Luerk kao pai ter
TTITLE7=Kuang ngao tiew ngarn
TTITLE8=Khon jon kor sit
TTITLE9=Khun pa cafe
EXTD=Thailand country singer
EXTT0=
EXTT1=
EXTT2=
EXTT3=
EXTT4=
EXTT5=
EXTT6=
EXTT7=
EXTT8=
EXTT9=
PLAYORDER=
